<?xml version="1.0" encoding="utf-8"?>
<!-- Generator: Adobe Illustrator 27.2.0, SVG Export Plug-In . SVG Version: 6.00 Build 0)  -->
<svg version="1.1" id="Capa_1" xmlns="http://www.w3.org/2000/svg" xmlns:xlink="http://www.w3.org/1999/xlink" x="0px" y="0px"
	 viewBox="0 0 100 100" style="enable-background:new 0 0 100 100;" xml:space="preserve">
<g>
	<path d="M85,63.88c-0.11,0.43-0.21,0.87-0.34,1.3c-0.53,1.82-1.54,3.32-3,4.52c-8.06,6.63-16.11,13.27-24.19,19.88
		c-2.44,1.99-5.21,2.36-8.05,1.03c-2.86-1.34-4.28-3.72-4.36-6.86c-0.06-2.41-0.01-4.83-0.01-7.24c0-0.26,0-0.52,0-0.87
		c-0.8,0.04-1.53,0.08-2.26,0.12c-5.1,0.35-10.09,1.19-14.8,3.29c-3.99,1.78-7.37,4.3-9.57,8.18c-0.84,1.49-1.41,3.08-1.63,4.78
		c-0.17,1.36-1.09,2.3-2.34,2.39c-1.31,0.09-2.35-0.69-2.72-2.05c-0.02-0.09-0.08-0.16-0.12-0.25c0-1.86,0-3.73,0-5.59
		c0.14-1.3,0.26-2.61,0.43-3.9c0.89-6.83,2.85-13.29,6.8-19.02c4.49-6.52,10.65-10.64,18.33-12.45c2.24-0.53,4.56-0.72,6.85-1.07
		c0.31-0.05,0.62-0.07,1.03-0.11c0-0.29,0-0.57,0-0.84c0.02-2.72-0.09-5.45,0.11-8.16c0.22-2.96,1.9-5.07,4.64-6.19
		c2.72-1.12,5.33-0.71,7.6,1.14c5.38,4.36,10.71,8.78,16.06,13.18c2.67,2.2,5.34,4.41,8.03,6.59c1.86,1.51,3.05,3.39,3.41,5.77
		c0.01,0.09,0.07,0.18,0.11,0.26C85,62.44,85,63.16,85,63.88z M17.83,79.66c0.12-0.08,0.23-0.14,0.31-0.21
		c3.26-3.08,7.12-5.1,11.34-6.47c5.76-1.87,11.7-2.45,17.72-2.5c2.02-0.02,3,0.95,3.01,2.96c0,3.32,0.01,6.64,0,9.96
		c0,1.14,0.35,2.07,1.44,2.58c1.07,0.49,1.98,0.16,2.84-0.55c7.93-6.53,15.86-13.04,23.79-19.57c2.17-1.78,2.15-4.38-0.03-6.18
		c-7.91-6.51-15.83-13-23.73-19.52c-0.88-0.73-1.81-1.08-2.9-0.57c-1.08,0.51-1.43,1.45-1.42,2.59c0.02,3.27,0.01,6.54,0.01,9.82
		c0,2.13-0.91,3-3.03,3.12c-2.28,0.13-4.59,0.23-6.83,0.63C27.51,57.99,20.24,67.16,17.83,79.66z"/>
	<path d="M43.39,35.97c0,1.13-0.65,2.18-1.76,2.52c-1.13,0.35-2.3,0.57-3.45,0.82c-3.13,0.67-4.94,2.62-5.57,5.73
		c-0.18,0.87-0.34,1.75-0.54,2.61c-0.35,1.51-1.43,2.41-2.8,2.39c-1.34-0.03-2.37-0.92-2.71-2.38c-0.25-1.1-0.42-2.21-0.71-3.3
		c-0.7-2.69-2.46-4.33-5.13-4.99c-1.21-0.3-2.46-0.45-3.63-0.84c-1.76-0.58-2.45-2.7-1.3-4.12c0.48-0.59,1.32-0.96,2.07-1.23
		c0.86-0.31,1.79-0.38,2.69-0.58c3.01-0.67,4.79-2.55,5.45-5.54c0.2-0.9,0.35-1.8,0.55-2.7c0.34-1.53,1.36-2.44,2.73-2.47
		c1.41-0.02,2.45,0.88,2.81,2.47c0.24,1.04,0.42,2.09,0.68,3.13c0.7,2.77,2.49,4.44,5.24,5.09c0.95,0.22,1.92,0.37,2.87,0.59
		C42.46,33.53,43.39,34.57,43.39,35.97z M29.26,24.63c-0.55,6.91-4.23,10.68-11.17,11.28c2.92,0.7,5.78,1.18,7.96,3.37
		c2.19,2.21,2.64,5.09,3.27,7.96c0.62-2.86,1.08-5.73,3.25-7.95c2.17-2.21,5.05-2.69,7.89-3.33c-2.88-0.62-5.7-1.13-7.88-3.31
		C30.39,30.45,29.94,27.56,29.26,24.63z"/>
	<path d="M65.11,5c1.14,0,2.17,0.65,2.52,1.77c0.36,1.16,0.57,2.36,0.84,3.54c0.68,3.01,2.57,4.79,5.55,5.44
		c0.93,0.2,1.86,0.35,2.79,0.56c1.46,0.34,2.35,1.38,2.37,2.72c0.02,1.37-0.88,2.44-2.39,2.79c-1.07,0.25-2.15,0.42-3.21,0.69
		c-2.77,0.7-4.44,2.49-5.09,5.25c-0.27,1.15-0.43,2.34-0.78,3.47c-0.58,1.81-2.72,2.55-4.16,1.37c-0.59-0.48-0.95-1.33-1.22-2.08
		c-0.3-0.83-0.38-1.73-0.56-2.6c-0.66-3.09-2.58-4.91-5.65-5.55c-0.9-0.19-1.81-0.34-2.7-0.55c-1.47-0.34-2.35-1.38-2.37-2.72
		c-0.02-1.37,0.89-2.45,2.39-2.79c1.07-0.25,2.15-0.42,3.22-0.69c2.76-0.7,4.44-2.49,5.09-5.25c0.22-0.92,0.37-1.86,0.57-2.79
		C62.64,5.94,63.68,4.99,65.11,5z M76.4,19.12c-2.92-0.66-5.79-1.14-8-3.32c-2.19-2.17-2.66-5.04-3.31-7.88
		c-0.63,2.87-1.12,5.72-3.32,7.9c-2.21,2.19-5.09,2.63-7.95,3.26c2.85,0.63,5.73,1.07,7.94,3.25c2.21,2.18,2.69,5.05,3.4,7.99
		C65.74,23.35,69.52,19.72,76.4,19.12z"/>
	<g>
		<path d="M75.52,88.4c-0.53,0-1.07,0.02-1.6,0c-0.9-0.04-1.47-0.58-1.48-1.34c-0.01-0.76,0.57-1.32,1.46-1.34
			c1.13-0.03,2.25-0.03,3.38,0c0.87,0.02,1.39,0.52,1.41,1.27c0.03,0.79-0.5,1.35-1.39,1.4C76.71,88.43,76.11,88.4,75.52,88.4z"/>
		<path d="M81.73,91.92c0,0.62,0.03,1.25-0.01,1.87c-0.05,0.72-0.48,1.15-1.19,1.21c-0.76,0.07-1.35-0.33-1.4-1.07
			c-0.09-1.35-0.09-2.72-0.01-4.08c0.05-0.74,0.62-1.14,1.38-1.08c0.76,0.06,1.18,0.53,1.22,1.28
			C81.76,90.67,81.74,91.29,81.73,91.92C81.73,91.92,81.73,91.92,81.73,91.92z"/>
		<path d="M81.74,82.19c0,0.62,0.02,1.24-0.01,1.87c-0.03,0.77-0.5,1.19-1.23,1.29c-0.67,0.09-1.36-0.44-1.4-1.2
			c-0.07-1.27-0.08-2.55-0.01-3.82c0.04-0.77,0.55-1.25,1.36-1.22c0.81,0.03,1.24,0.51,1.28,1.31C81.77,81,81.74,81.59,81.74,82.19
			C81.74,82.19,81.74,82.19,81.74,82.19z"/>
		<path d="M85.25,88.4c-0.59,0-1.19,0.03-1.78-0.01c-0.82-0.06-1.37-0.65-1.36-1.37c0.02-0.73,0.57-1.28,1.41-1.3
			c1.16-0.03,2.31-0.03,3.47,0c0.85,0.02,1.39,0.56,1.4,1.31c0.01,0.73-0.54,1.31-1.36,1.36C86.44,88.43,85.84,88.4,85.25,88.4z"/>
	</g>
</g>
</svg>
