<?xml version="1.0" encoding="utf-8"?>
<!-- Generator: Adobe Illustrator 27.2.0, SVG Export Plug-In . SVG Version: 6.00 Build 0)  -->
<svg version="1.1" id="Capa_1" xmlns="http://www.w3.org/2000/svg" xmlns:xlink="http://www.w3.org/1999/xlink" x="0px" y="0px"
	 viewBox="0 0 100 100" xml:space="preserve">
<path fill="var(--color)" d="M50.08,5C25.27,4.93,5.06,25.07,5.01,49.94C4.96,74.76,25.11,94.97,49.97,95c24.83,0.03,45.02-20.14,45.03-44.99
	C95,25.19,74.93,5.07,50.08,5z M55.51,63.85c-2.35,2.39-4.72,4.76-7.1,7.12c-2.29,2.28-5.04,3.62-8.27,3.97
	c-0.09,0.01-0.18,0.05-0.27,0.08c-0.75,0-1.5,0-2.24,0c-0.13-0.03-0.25-0.07-0.38-0.08c-5.75-0.81-9.61-3.96-11.53-9.44
	c-0.34-0.98-0.45-2.05-0.67-3.08c0-0.75,0-1.5,0-2.25c0.14-0.75,0.25-1.5,0.43-2.24c0.61-2.4,1.8-4.49,3.54-6.25
	c1.19-1.2,2.38-2.41,3.59-3.59c1.03-1.01,2.28-1.31,3.64-0.87c1.35,0.44,2.16,1.41,2.4,2.82c0.21,1.23-0.18,2.28-1.05,3.16
	c-1.16,1.17-2.34,2.31-3.48,3.49c-1.8,1.87-2.4,4.08-1.64,6.56c0.74,2.44,2.45,3.96,4.94,4.49c2.16,0.45,4.13-0.08,5.72-1.62
	c2.54-2.46,5.03-4.95,7.48-7.49c2.39-2.48,2.34-6.4-0.07-8.98c-0.99-1.06-1.39-2.27-0.96-3.67c0.79-2.61,4.05-3.39,5.97-1.42
	c2.65,2.71,3.97,5.98,3.93,9.78C59.45,58.04,58.09,61.22,55.51,63.85z M70.94,48.38c-1.53,1.57-3.09,3.12-4.65,4.67
	c-1.49,1.47-3.69,1.49-5.11,0.07c-1.41-1.41-1.39-3.64,0.07-5.12c1.54-1.56,3.11-3.1,4.65-4.67c3.3-3.35,2.27-8.87-2.03-10.67
	c-2.52-1.05-4.94-0.68-6.93,1.2c-2.59,2.44-5.09,4.99-7.56,7.56c-2.37,2.46-2.3,6.38,0.09,8.94c0.91,0.97,1.33,2.07,1.04,3.39
	c-0.3,1.33-1.11,2.23-2.41,2.64c-1.3,0.41-2.5,0.15-3.48-0.8c-2.22-2.16-3.57-4.8-3.96-7.87c-0.59-4.64,0.84-8.6,4.16-11.88
	c2.2-2.18,4.38-4.36,6.55-6.57c2.37-2.41,5.19-3.86,8.56-4.21c0.08-0.01,0.15-0.05,0.23-0.08c0.78,0,1.56,0,2.34,0
	c0.81,0.16,1.63,0.28,2.42,0.49c5.39,1.41,9.46,6.23,9.98,11.8C75.29,41.58,73.95,45.29,70.94,48.38z"/>
</svg>
