<?xml version="1.0" encoding="utf-8"?>
<!-- Generator: Adobe Illustrator 27.2.0, SVG Export Plug-In . SVG Version: 6.00 Build 0)  -->
<svg version="1.1" id="Capa_1" xmlns="http://www.w3.org/2000/svg" xmlns:xlink="http://www.w3.org/1999/xlink" x="0px" y="0px"
	 viewBox="0 0 100 100" style="enable-background:new 0 0 100 100;" xml:space="preserve">
<g>
	<path d="M49.97,95C25.17,94.97,5.05,74.77,5.1,49.94C5.15,25.07,25.31,4.93,50.08,5c24.79,0.07,44.83,20.19,44.82,45
		C94.9,74.86,74.75,95.03,49.97,95z M74.95,50.02c0-3.13,0.01-6.27,0-9.4c-0.03-8.78-6.83-15.59-15.57-15.6
		c-6.25-0.01-12.51-0.01-18.76,0c-8.68,0.01-15.51,6.83-15.55,15.53c-0.02,6.3-0.02,12.6,0,18.9C25.1,68.16,31.9,74.97,40.59,75
		c6.29,0.02,12.57,0.02,18.86,0c8.69-0.03,15.46-6.85,15.49-15.58C74.96,56.29,74.95,53.15,74.95,50.02z"/>
	<path d="M49.97,69.42c-3.06,0-6.12,0.01-9.18,0c-5.95-0.03-10.15-4.25-10.16-10.22c-0.01-6.13-0.01-12.26,0-18.4
		c0.01-5.96,4.22-10.19,10.18-10.21c6.15-0.02,12.3-0.03,18.46,0c5.89,0.03,10.09,4.26,10.11,10.18c0.02,6.17,0.02,12.33,0,18.5
		c-0.02,5.92-4.22,10.12-10.13,10.15C56.16,69.44,53.07,69.42,49.97,69.42z M50.03,37.21c-7.01-0.01-12.78,5.74-12.79,12.75
		c-0.01,7.01,5.74,12.81,12.73,12.82c7,0.01,12.77-5.74,12.79-12.75C62.78,43.02,57.03,37.23,50.03,37.21z M63.39,38.62
		c1.19,0,2.16-0.95,2.16-2.13c0-1.18-0.96-2.13-2.15-2.13c-1.19,0-2.16,0.95-2.16,2.13C61.23,37.66,62.19,38.61,63.39,38.62z"/>
	<path d="M49.97,42.23c4.24-0.02,7.77,3.47,7.79,7.73c0.02,4.25-3.47,7.78-7.71,7.81c-4.23,0.03-7.77-3.48-7.79-7.73
		C42.23,45.79,45.73,42.26,49.97,42.23z"/>
</g>
</svg>
