<?xml version="1.0" encoding="utf-8"?>
<!-- Generator: Adobe Illustrator 27.2.0, SVG Export Plug-In . SVG Version: 6.00 Build 0)  -->
<svg version="1.1" id="Capa_1" xmlns="http://www.w3.org/2000/svg" xmlns:xlink="http://www.w3.org/1999/xlink" x="0px" y="0px"
	 viewBox="0 0 100 100" style="enable-background:new 0 0 100 100;" xml:space="preserve">
<path d="M49.97,95C25.11,94.97,4.96,74.76,5.01,49.94C5.06,25.07,25.27,4.93,50.08,5C74.93,5.07,95,25.19,94.99,50.01
	C94.98,74.86,74.8,95.03,49.97,95z M61.9,51.99c0.34-3.06,0.67-5.99,1.01-9.05c-3.03,0-5.94,0-8.93,0c0-2.22-0.01-4.31,0-6.4
	c0.02-2.15,1.22-3.34,3.35-3.34c1.83,0,3.65,0,5.51,0c0-2.75,0-5.42,0-8.2c-2.85,0-5.61,0-8.37,0c-4.93,0.01-9.57,4.6-9.6,9.52
	c-0.01,2.4,0,4.8-0.01,7.2c0,0.35-0.03,0.7-0.05,1.15c-2.62,0-5.13,0-7.66,0c0,3.11,0,6.12,0,9.24c2.57,0,5.05,0,7.65,0
	c0,7.69,0,15.26,0,22.85c3.06,0,6.01,0,9.07,0c0-7.67,0-15.28,0-22.96C56.57,51.99,59.17,51.99,61.9,51.99z"/>
</svg>
