<?xml version="1.0" encoding="utf-8"?>
<!-- Generator: Adobe Illustrator 27.2.0, SVG Export Plug-In . SVG Version: 6.00 Build 0)  -->
<svg version="1.1" id="Capa_1" xmlns="http://www.w3.org/2000/svg" xmlns:xlink="http://www.w3.org/1999/xlink" x="0px" y="0px"
	 viewBox="0 0 100 100" style="enable-background:new 0 0 100 100;" xml:space="preserve">
<g>
	<path d="M52.79,95c-1.87,0-3.75,0-5.62,0c-0.58-0.07-1.15-0.15-1.73-0.21C36,93.74,27.59,90.26,20.49,83.93
		C9.01,73.69,3.89,60.79,5.23,45.47c0.84-9.59,4.6-18.05,11.03-25.23c8.78-9.8,19.81-14.91,32.96-15.23
		c8.55-0.21,16.56,1.89,23.84,6.37c11.59,7.14,18.72,17.43,21.22,30.85c0.3,1.63,0.46,3.3,0.69,4.94c0,1.88,0,3.75,0,5.63
		c-0.07,0.58-0.15,1.15-0.22,1.73c-0.96,8.9-4.19,16.89-9.87,23.81c-7.06,8.61-16.1,13.96-27.08,15.95
		C56.15,94.61,54.47,94.77,52.79,95z M23.79,76.62c0.38-0.08,0.66-0.13,0.93-0.21c4.21-1.1,8.43-2.22,12.65-3.28
		c0.41-0.1,0.95-0.05,1.32,0.14c5.22,2.6,10.69,3.45,16.46,2.6C70.08,73.65,80.47,58.7,77.34,43.9
		c-3.05-14.39-16.52-23.6-30.97-21.18c-16.98,2.85-26.93,20.96-20.29,36.91c1.7,2.26,1.27,4.6,0.46,7.08
		C25.49,69.93,24.72,73.23,23.79,76.62z"/>
	<path d="M30.25,70.26c0.7-2.56,1.33-4.99,2.03-7.39c0.18-0.62,0.1-1.09-0.24-1.63c-8.23-13.31-1.17-30.29,14.06-33.83
		c12.42-2.89,25.03,5.7,26.93,18.35c1.86,12.36-6.39,23.71-18.72,25.64c-5.31,0.83-10.3-0.24-14.95-2.93
		c-0.37-0.22-0.94-0.29-1.37-0.19C35.46,68.88,32.95,69.56,30.25,70.26z M58,62.19c0.42-0.03,0.84,0,1.24-0.09
		c3.17-0.66,5.43-2.46,5.32-5.8c-0.01-0.32-0.21-0.8-0.46-0.93c-1.85-0.94-3.72-1.83-5.6-2.71c-0.62-0.29-1.09-0.07-1.5,0.49
		c-0.58,0.8-1.25,1.55-1.86,2.33c-0.42,0.54-0.9,0.65-1.54,0.39c-3.95-1.58-6.96-4.24-9.14-7.87c-0.32-0.53-0.3-0.95,0.1-1.43
		c0.56-0.68,1.12-1.36,1.56-2.11c0.21-0.35,0.34-0.93,0.2-1.29c-0.69-1.83-1.46-3.63-2.25-5.42c-0.14-0.32-0.45-0.75-0.74-0.79
		c-1.23-0.21-2.52-0.43-3.57,0.56c-2.1,1.99-2.87,4.44-2.34,7.26c0.47,2.52,1.88,4.57,3.39,6.56c2.85,3.76,6.15,6.99,10.52,8.94
		C53.45,61.24,55.6,62.2,58,62.19z"/>
</g>
</svg>
