<?xml version="1.0" encoding="utf-8"?>
<!-- Generator: Adobe Illustrator 27.2.0, SVG Export Plug-In . SVG Version: 6.00 Build 0)  -->
<svg version="1.1" id="Capa_1" xmlns="http://www.w3.org/2000/svg" xmlns:xlink="http://www.w3.org/1999/xlink" x="0px" y="0px"
	 viewBox="0 0 100 100" style="enable-background:new 0 0 100 100;" xml:space="preserve">
<g>
	<path d="M94.99,50.04C94.95,74.91,74.75,95.06,49.93,95c-24.87-0.06-45-20.27-44.92-45.09C5.08,25.07,25.22,4.98,50.02,5
		C74.87,5.02,95.03,25.2,94.99,50.04z M34.59,54.32c-0.01,0.08-0.03,0.17-0.04,0.25c-1.36,0-2.72,0-4.24,0
		c1.45,4.52,4.88,6.34,9.22,7.31c-4.27,3.25-9.09,4.02-14.38,4.17c0.56,0.27,0.84,0.42,1.14,0.55c4.26,1.8,8.69,2.98,13.3,3.34
		c4.95,0.38,9.77-0.18,14.35-2.26c9.84-4.47,16.39-15.09,16.16-27.07c-0.01-0.77,0.21-1.09,0.86-1.4c1.66-0.81,2.97-2.02,3.88-3.71
		c-1.73,0.29-3.36,0.57-4.99,0.84c-0.02-0.1-0.05-0.19-0.07-0.29c1.66-1.33,3.31-2.67,3.8-4.78c-1.59,0.56-3.16,1.17-4.77,1.64
		c-1.07,0.31-2.03,0.14-2.99-0.73c-4.64-4.16-14.31-2.44-15.89,5.21c-0.31,1.49-0.34,3.03-0.52,4.79
		c-8.6,0.52-14.74-4.47-20.87-9.75c-2.32,5.13-0.77,9.27,3.11,12.93c-1.73,0.36-3.13-0.25-4.75-0.87
		C26.97,49.87,30.69,52.17,34.59,54.32z"/>
</g>
</svg>
