<?xml version="1.0" encoding="utf-8"?>
<!-- Generator: Adobe Illustrator 27.2.0, SVG Export Plug-In . SVG Version: 6.00 Build 0)  -->
<svg version="1.1" id="Capa_1" xmlns="http://www.w3.org/2000/svg" xmlns:xlink="http://www.w3.org/1999/xlink" x="0px" y="0px"
	 viewBox="0 0 100 100" style="enable-background:new 0 0 100 100;" xml:space="preserve">
<style type="text/css">
	.st0{fill:#FFFFFF;}
</style>
<g>
	<g>
		<path class="st0" d="M4.99,86.56c0-24.37,0-48.75,0-73.12c0.05-0.13,0.13-0.26,0.16-0.39c0.49-2.69,1.82-4.89,4.13-6.33
			c1.25-0.78,2.76-1.16,4.15-1.72C37.8,5,62.17,5,86.55,5c0.07,0.05,0.14,0.12,0.22,0.13c4.13,0.52,8.26,4.33,8.25,10.15
			c-0.06,23.17-0.02,46.34-0.05,69.51c0,1.15-0.15,2.35-0.48,3.45C93.19,92.41,89.5,95,84.95,95C61.64,95,38.32,95,15,95
			c-0.21,0-0.41,0-0.62-0.01c-4.13-0.13-7.82-2.96-8.99-6.93C5.25,87.57,5.12,87.06,4.99,86.56z M49.63,84.39c0-0.04,0-0.08,0-0.12
			c0.93,0,1.87,0.03,2.8,0c4.9-0.16,9.83-0.01,14.68-0.57c7.79-0.9,13.15-5.16,15.61-12.76c0.94-2.92,1.16-5.96,1.15-9.01
			c-0.05-9.49-0.05-18.99-0.3-28.48c-0.11-4-1.56-7.69-4.15-10.84c-3.83-4.66-8.98-6.65-14.78-6.76
			c-10.01-0.19-20.02-0.1-30.03-0.02c-2.95,0.02-5.83,0.69-8.51,1.99c-6.66,3.2-10.08,8.78-10.36,15.9
			c-0.4,10.1-0.26,20.23-0.22,30.34c0.02,4.04,0.89,7.97,3.13,11.44c3.59,5.56,8.96,8.06,15.35,8.43
			C39.2,84.25,44.42,84.25,49.63,84.39z"/>
		<path class="st0" d="M75.95,49.91c0,4.42,0.06,8.84-0.03,13.25c-0.03,1.51-0.26,3.06-0.66,4.51c-1.32,4.81-4.63,7.57-9.47,8.18
			c-3.56,0.45-7.19,0.51-10.79,0.55c-5.82,0.05-11.63-0.01-17.45-0.15c-1.99-0.05-4.04-0.28-5.96-0.82
			c-4.55-1.29-7.15-4.51-7.85-9.1c-0.42-2.75-0.54-5.56-0.55-8.35c-0.03-6.89,0.03-13.78,0.15-20.66c0.03-1.67,0.25-3.38,0.66-5
			c1.23-4.81,4.83-7.91,9.94-8.42c3.26-0.32,6.55-0.42,9.83-0.42c6.56-0.01,13.13,0.04,19.69,0.22c3.74,0.1,7.18,1.18,9.69,4.23
			c2.04,2.49,2.71,5.46,2.78,8.55C76.02,40.95,75.94,45.43,75.95,49.91C75.95,49.91,75.95,49.91,75.95,49.91z M65.5,49.99
			c0.01-8.8-7.02-15.87-15.82-15.89c-8.73-0.02-15.85,7.05-15.87,15.76c-0.03,8.78,7.05,15.93,15.79,15.96
			C58.37,65.84,65.48,58.76,65.5,49.99z M61.38,33.51c0.02,2.68,2.17,4.77,4.87,4.72c2.6-0.04,4.7-2.21,4.66-4.83
			c-0.03-2.62-2.16-4.74-4.77-4.74C63.48,28.66,61.36,30.82,61.38,33.51z"/>
		<path class="st0" d="M58.28,49.95c0,4.79-3.87,8.65-8.65,8.64c-4.77-0.01-8.62-3.9-8.61-8.69c0.01-4.74,3.86-8.58,8.62-8.6
			C54.41,41.28,58.29,45.16,58.28,49.95z"/>
	</g>
</g>
</svg>
