<?xml version="1.0" encoding="utf-8"?>
<!-- Generator: Adobe Illustrator 27.2.0, SVG Export Plug-In . SVG Version: 6.00 Build 0)  -->
<svg version="1.1" id="Capa_1" xmlns="http://www.w3.org/2000/svg" xmlns:xlink="http://www.w3.org/1999/xlink" x="0px" y="0px"
	 viewBox="0 0 100 100" style="enable-background:new 0 0 100 100;" xml:space="preserve">
<style type="text/css">
	.st0{fill:#FFFFFF;}
</style>
<path class="st0" d="M4.99,84.1c0-22.73,0-45.47,0-68.2c0.06-0.25,0.14-0.5,0.18-0.75c1.01-5.8,6.06-10.13,11.98-10.14
	c21.91-0.02,43.82-0.03,65.73,0c6.64,0.01,12.1,5.45,12.11,12.1c0.03,21.93,0.03,43.87,0,65.8c-0.01,5.34-3.64,10.06-8.77,11.56
	c-0.7,0.2-1.41,0.35-2.12,0.52c-22.74,0-45.47,0-68.21,0c-0.17-0.05-0.33-0.12-0.5-0.15c-5.11-0.96-8.42-3.94-9.96-8.88
	C5.24,85.36,5.13,84.72,4.99,84.1z M53.71,43c0-2.63-0.08-5.12,0.02-7.6c0.1-2.44,1.45-3.72,3.91-3.86c1.55-0.09,3.1-0.04,4.66-0.08
	c1.09-0.03,1.61-0.55,1.62-1.64c0.02-2.11,0.02-4.22,0-6.33c-0.01-1.08-0.56-1.6-1.65-1.61c-2.26-0.01-4.51-0.04-6.77,0.01
	c-6.72,0.16-11.51,4.63-12,11.35c-0.21,2.91-0.12,5.85-0.17,8.78c0,0.31,0,0.62,0,0.98c-2.06,0-3.99-0.01-5.92,0.01
	c-1.13,0.01-1.67,0.56-1.67,1.69c-0.01,2.46,0,4.92,0.02,7.38c0.01,1.22,0.55,1.75,1.79,1.76c1.64,0.01,3.28,0,4.92,0
	c0.28,0,0.55,0,0.86,0c0,0.5,0,0.85,0,1.2c0,7.18,0,14.35,0,21.53c0,1.26,0.3,1.56,1.54,1.56c2.37,0,4.75,0,7.12,0
	c1.43,0,1.69-0.26,1.69-1.68c0.01-7.18,0.02-14.35,0.02-21.53c0-0.34,0-0.68,0-1.08c0.45,0,0.76,0,1.08,0c2.2,0,4.39,0,6.59,0
	c1.41,0,1.84-0.38,2-1.75c0.24-2.03,0.47-4.07,0.71-6.11C64.4,43.25,64.18,43,61.41,43C58.87,43,56.33,43,53.71,43z"/>
</svg>
