<?xml version="1.0" encoding="utf-8"?>
<!-- Generator: Adobe Illustrator 27.2.0, SVG Export Plug-In . SVG Version: 6.00 Build 0)  -->
<svg version="1.1" id="Capa_1" xmlns="http://www.w3.org/2000/svg" xmlns:xlink="http://www.w3.org/1999/xlink" x="0px" y="0px"
	 viewBox="0 0 100 100" style="enable-background:new 0 0 100 100;" xml:space="preserve">
<style type="text/css">
	.st0{fill:#FFFFFF;}
</style>
<path class="st0" d="M95.01,15.28c0.02-5.82-4.12-9.63-8.25-10.15C86.69,5.12,86.62,5.05,86.55,5C62.17,5,37.8,5,13.42,5
	c-1.39,0.56-2.89,0.94-4.15,1.72c-2.31,1.43-3.65,3.63-4.13,6.33c-0.02,0.14-0.1,0.26-0.16,0.39c0,24.37,0,48.75,0,73.12
	c0.14,0.5,0.26,1,0.41,1.5c1.17,3.96,4.86,6.8,8.99,6.93C14.59,95,14.8,95,15,95c23.32,0,46.63,0,69.95,0
	c4.55,0,8.24-2.59,9.53-6.76c0.34-1.1,0.48-2.3,0.48-3.45C94.99,61.62,94.95,38.45,95.01,15.28z M22.12,63.96
	c0,1.27-0.59,2.1-1.65,2.32c-0.98,0.21-1.82-0.3-2.35-1.41c-0.02-0.03-0.06-0.05-0.09-0.08c0-4.42,0-8.85,0-13.27
	c0.03-0.03,0.07-0.05,0.09-0.08c0.53-1.11,1.36-1.62,2.35-1.41c1.05,0.22,1.65,1.05,1.65,2.32C22.12,56.23,22.12,60.09,22.12,63.96z
	 M30.28,66.19c-0.01,1.57-1.39,2.58-2.76,2.03c-0.83-0.33-1.27-0.97-1.31-1.87c-0.03-0.66-0.01-1.32-0.01-1.98
	c0-5.99,0-11.99,0-17.98c0-0.3-0.01-0.6,0.05-0.89c0.2-1.01,1.12-1.7,2.13-1.63c1.04,0.07,1.87,0.9,1.89,1.97
	c0.03,1.49,0.01,2.98,0.01,4.46c0,1.93,0,3.87,0,5.8C30.28,59.47,30.29,62.83,30.28,66.19z M38.44,66.2
	c-0.01,1.56-1.39,2.57-2.77,2.03c-0.83-0.33-1.27-0.98-1.3-1.87c-0.03-0.83-0.01-1.66-0.01-2.49c0-5.82,0-11.65,0-17.47
	c0-0.3-0.01-0.6,0.05-0.89c0.2-1.01,1.12-1.7,2.14-1.63c1.04,0.07,1.86,0.9,1.89,1.97c0.03,1.55,0.01,3.1,0.01,4.65
	c0,1.89,0,3.78,0,5.68C38.45,59.52,38.46,62.86,38.44,66.2z M46.62,38.23c0,9.21,0,18.41,0,27.62c0,0.3,0.01,0.6-0.05,0.89
	c-0.21,1.03-1.17,1.73-2.2,1.62c-1.03-0.11-1.81-0.95-1.82-2.04c-0.02-1.87-0.01-3.74-0.01-5.61c0-2.91,0-5.83,0-8.74
	c0-4.68,0-9.35,0-14.03c0-1.59,1.32-2.61,2.71-2.1c0.82,0.3,1.26,0.91,1.36,1.76C46.63,37.81,46.62,38.02,46.62,38.23z M77.8,67.24
	c-1.49,0.75-3.06,1.12-4.73,1.12c-6.7,0-13.39,0-20.09,0c-1.47,0-2.28-0.82-2.28-2.3c0-10.71,0-21.43,0-32.14
	c0-1.53,0.85-2.34,2.4-2.3c8.05,0.23,14.87,5.39,17.23,13.08c0.33,1.09,0.5,2.23,0.77,3.44c1.58-0.3,3.15-0.25,4.72,0.16
	c4.05,1.06,7.07,4.64,7.51,8.94C83.74,61.29,81.45,65.41,77.8,67.24z"/>
</svg>
