<?xml version="1.0" encoding="utf-8"?>
<!-- Generator: Adobe Illustrator 27.2.0, SVG Export Plug-In . SVG Version: 6.00 Build 0)  -->
<svg version="1.1" id="Capa_1" xmlns="http://www.w3.org/2000/svg" xmlns:xlink="http://www.w3.org/1999/xlink" x="0px" y="0px"
	 viewBox="0 0 100 100" style="enable-background:new 0 0 100 100;" xml:space="preserve">
<style type="text/css">
	.st0{fill:#FFFFFF;}
</style>
<g>
	<g>
		<path class="st0" d="M57.94,47.91c-3.87-2-7.72-4.01-11.59-6.01c-1.64-0.85-3.02-0.01-3.03,1.83c0,2,0,4,0,6
			c0,2.02-0.01,4.04,0,6.06c0.01,1.82,1.39,2.65,3,1.81c3.88-2.02,7.75-4.05,11.63-6.06c0.74-0.38,1.25-0.92,1.26-1.79
			C59.22,48.85,58.7,48.31,57.94,47.91z"/>
		<path class="st0" d="M95.01,15.28c0.02-5.82-4.12-9.63-8.25-10.15C86.69,5.12,86.62,5.05,86.55,5C62.17,5,37.8,5,13.42,5
			c-1.39,0.56-2.89,0.94-4.15,1.72c-2.31,1.43-3.65,3.63-4.13,6.33c-0.02,0.14-0.1,0.26-0.16,0.39c0,24.37,0,48.75,0,73.12
			c0.14,0.5,0.26,1,0.41,1.5c1.17,3.96,4.86,6.8,8.99,6.93C14.59,95,14.8,95,15,95c23.32,0,46.63,0,69.95,0
			c4.55,0,8.24-2.59,9.53-6.76c0.34-1.1,0.48-2.3,0.48-3.45C94.99,61.62,94.95,38.45,95.01,15.28z M78.98,57.47
			c-0.04,0.24-0.09,0.47-0.11,0.71c-0.13,1.91-0.39,3.79-1.04,5.6c-0.85,2.36-2.37,4.13-4.69,5.16c-1.93,0.86-3.97,1.2-6.04,1.31
			c-2.09,0.11-4.19,0.13-6.28,0.14c-8.55,0.01-17.1,0.01-25.65-0.03c-2.63-0.01-5.23-0.35-7.7-1.35c-2.02-0.82-3.64-2.11-4.69-4.06
			c-1.14-2.09-1.59-4.37-1.64-6.69c-0.11-4.73-0.12-9.47-0.12-14.21c0-1.87,0.09-3.73,0.22-5.6c0.11-1.51,0.49-2.97,1.25-4.31
			c1.24-2.17,3.27-3.16,5.56-3.74c2.45-0.62,4.95-0.79,7.46-0.79c9.32-0.01,18.65-0.01,27.97-0.01c2.68,0,5.36,0.11,7.99,0.69
			c1.69,0.38,3.29,0.97,4.6,2.16c1.64,1.49,2.28,3.46,2.57,5.58c0.15,1.04,0.23,2.09,0.34,3.13C78.98,46.6,78.98,52.04,78.98,57.47z
			"/>
	</g>
</g>
</svg>
