<?xml version="1.0" encoding="utf-8"?>
<!-- Generator: Adobe Illustrator 27.2.0, SVG Export Plug-In . SVG Version: 6.00 Build 0)  -->
<svg version="1.1" id="Capa_1" xmlns="http://www.w3.org/2000/svg" xmlns:xlink="http://www.w3.org/1999/xlink" x="0px" y="0px"
	 viewBox="0 0 100 100" style="enable-background:new 0 0 100 100;" xml:space="preserve">
<style type="text/css">
	.st0{fill:#FFFFFF;}
</style>
<path class="st0" d="M95.01,15.28c0.02-5.82-4.12-9.63-8.25-10.15C86.69,5.12,86.62,5.05,86.55,5C62.17,5,37.8,5,13.42,5
	c-1.39,0.56-2.89,0.94-4.15,1.72c-2.31,1.43-3.65,3.63-4.13,6.33c-0.02,0.14-0.1,0.26-0.16,0.39c0,24.37,0,48.75,0,73.12
	c0.14,0.5,0.26,1,0.41,1.5c1.17,3.96,4.86,6.8,8.99,6.93C14.59,95,14.8,95,15,95c23.32,0,46.63,0,69.95,0
	c4.55,0,8.24-2.59,9.53-6.76c0.34-1.1,0.48-2.3,0.48-3.45C94.99,61.62,94.95,38.45,95.01,15.28z M74.11,37.16
	c-1.06,0.8-1.44,1.61-1.45,2.97c-0.05,13.12-7.77,25.02-19.59,30.28c-5.83,2.59-11.94,3.37-18.25,2.55
	c-4.63-0.6-8.93-2.14-12.91-4.57c-0.13-0.08-0.25-0.16-0.37-0.25c-0.02-0.02-0.03-0.06-0.05-0.11c6.27,0.56,11.94-0.97,17.08-4.84
	c-5.37-0.5-8.95-3.2-10.94-8.19c1.79,0.2,3.44,0.25,5.24-0.23c-3.4-0.86-5.92-2.67-7.67-5.52c-1.13-1.86-1.83-4.55-1.59-6.1
	c1.58,0.79,3.22,1.33,5.16,1.37c-2.55-1.87-4.18-4.2-4.85-7.15c-0.67-2.97-0.2-5.77,1.29-8.49c6.35,7.49,14.38,11.61,24.1,12.28
	c-0.04-1.21-0.15-2.36-0.1-3.5c0.24-5.47,4.77-10.25,10.2-10.84c3.77-0.41,7.02,0.7,9.76,3.32c0.23,0.22,0.42,0.28,0.74,0.21
	c2.27-0.51,4.42-1.31,6.46-2.44c0.11-0.06,0.23-0.13,0.34-0.19c0.03-0.01,0.07,0,0.16,0c-0.89,2.64-2.53,4.66-4.81,6.18
	c0.02,0.04,0.03,0.09,0.05,0.13c0.69-0.13,1.39-0.23,2.08-0.39c0.72-0.17,1.44-0.37,2.15-0.59c0.68-0.22,1.35-0.48,2.14-0.77
	C77.22,34.18,75.84,35.85,74.11,37.16z"/>
</svg>
